<mxfile host="Electron" modified="2023-04-07T02:30:53.864Z" agent="Mozilla/5.0 (Windows NT 10.0; Win64; x64) AppleWebKit/537.36 (KHTML, like Gecko) draw.io/21.1.2 Chrome/106.0.5249.199 Electron/21.4.3 Safari/537.36" etag="tgcAN0grfvjr5cEE1WR8" version="21.1.2" type="device">
  <diagram name="Page-1" id="LFTyKNfZxazNtSX64OvF">
    <mxGraphModel dx="1954" dy="526" grid="1" gridSize="10" guides="1" tooltips="1" connect="1" arrows="1" fold="1" page="1" pageScale="1" pageWidth="850" pageHeight="1100" math="0" shadow="0">
      <root>
        <mxCell id="0" />
        <mxCell id="1" parent="0" />
        <mxCell id="ZkJlQXpscqVsZKB4UgPO-1" style="edgeStyle=orthogonalEdgeStyle;rounded=0;orthogonalLoop=1;jettySize=auto;html=1;entryX=0.5;entryY=0;entryDx=0;entryDy=0;" parent="1" source="ZkJlQXpscqVsZKB4UgPO-2" edge="1">
          <mxGeometry relative="1" as="geometry">
            <mxPoint x="425.5" y="125" as="targetPoint" />
          </mxGeometry>
        </mxCell>
        <mxCell id="ZkJlQXpscqVsZKB4UgPO-2" value="begin" style="ellipse;whiteSpace=wrap;html=1;aspect=fixed;" parent="1" vertex="1">
          <mxGeometry x="385" y="10" width="80" height="80" as="geometry" />
        </mxCell>
        <mxCell id="ZkJlQXpscqVsZKB4UgPO-3" value="end" style="ellipse;whiteSpace=wrap;html=1;aspect=fixed;" parent="1" vertex="1">
          <mxGeometry x="384.5" y="1260" width="80" height="80" as="geometry" />
        </mxCell>
        <mxCell id="ZkJlQXpscqVsZKB4UgPO-4" style="edgeStyle=orthogonalEdgeStyle;rounded=0;orthogonalLoop=1;jettySize=auto;html=1;entryX=0.5;entryY=0;entryDx=0;entryDy=0;exitX=0.5;exitY=1;exitDx=0;exitDy=0;" parent="1" source="ZkJlQXpscqVsZKB4UgPO-7" target="ZkJlQXpscqVsZKB4UgPO-28" edge="1">
          <mxGeometry relative="1" as="geometry">
            <mxPoint x="425.5" y="270" as="targetPoint" />
            <mxPoint x="425.5" y="225" as="sourcePoint" />
          </mxGeometry>
        </mxCell>
        <mxCell id="ZkJlQXpscqVsZKB4UgPO-6" style="edgeStyle=orthogonalEdgeStyle;rounded=0;orthogonalLoop=1;jettySize=auto;html=1;exitX=1;exitY=0.5;exitDx=0;exitDy=0;entryX=0;entryY=0.5;entryDx=0;entryDy=0;" parent="1" source="ZkJlQXpscqVsZKB4UgPO-7" target="ZkJlQXpscqVsZKB4UgPO-8" edge="1">
          <mxGeometry relative="1" as="geometry">
            <mxPoint x="660" y="189.47058823529414" as="targetPoint" />
          </mxGeometry>
        </mxCell>
        <mxCell id="ZkJlQXpscqVsZKB4UgPO-7" value="nhap(&amp;amp;a)" style="shape=process;whiteSpace=wrap;html=1;backgroundOutline=1;fillColor=#FFFF66;" parent="1" vertex="1">
          <mxGeometry x="319.5" y="140" width="210" height="70" as="geometry" />
        </mxCell>
        <mxCell id="ZkJlQXpscqVsZKB4UgPO-8" value="" style="whiteSpace=wrap;html=1;aspect=fixed;fillColor=#FFFF00;" parent="1" vertex="1">
          <mxGeometry x="605" y="10" width="260" height="260" as="geometry" />
        </mxCell>
        <mxCell id="ZkJlQXpscqVsZKB4UgPO-9" style="edgeStyle=orthogonalEdgeStyle;rounded=0;orthogonalLoop=1;jettySize=auto;html=1;entryX=0.5;entryY=0;entryDx=0;entryDy=0;" parent="1" source="ZkJlQXpscqVsZKB4UgPO-10" target="ZkJlQXpscqVsZKB4UgPO-14" edge="1">
          <mxGeometry relative="1" as="geometry" />
        </mxCell>
        <mxCell id="ZkJlQXpscqVsZKB4UgPO-10" value="nhap(*tmp)" style="ellipse;whiteSpace=wrap;html=1;" parent="1" vertex="1">
          <mxGeometry x="630" y="20" width="210" height="60" as="geometry" />
        </mxCell>
        <mxCell id="ZkJlQXpscqVsZKB4UgPO-11" style="edgeStyle=orthogonalEdgeStyle;rounded=0;orthogonalLoop=1;jettySize=auto;html=1;exitX=0.5;exitY=1;exitDx=0;exitDy=0;" parent="1" source="ZkJlQXpscqVsZKB4UgPO-10" target="ZkJlQXpscqVsZKB4UgPO-10" edge="1">
          <mxGeometry relative="1" as="geometry" />
        </mxCell>
        <mxCell id="ZkJlQXpscqVsZKB4UgPO-12" value="return" style="ellipse;whiteSpace=wrap;html=1;" parent="1" vertex="1">
          <mxGeometry x="640" y="210" width="190" height="50" as="geometry" />
        </mxCell>
        <mxCell id="ZkJlQXpscqVsZKB4UgPO-13" style="edgeStyle=orthogonalEdgeStyle;rounded=0;orthogonalLoop=1;jettySize=auto;html=1;entryX=0.5;entryY=0;entryDx=0;entryDy=0;" parent="1" source="ZkJlQXpscqVsZKB4UgPO-14" target="ZkJlQXpscqVsZKB4UgPO-12" edge="1">
          <mxGeometry relative="1" as="geometry" />
        </mxCell>
        <mxCell id="ZkJlQXpscqVsZKB4UgPO-14" value="read tmp" style="rounded=0;whiteSpace=wrap;html=1;" parent="1" vertex="1">
          <mxGeometry x="637.5" y="110" width="195" height="70" as="geometry" />
        </mxCell>
        <mxCell id="ZkJlQXpscqVsZKB4UgPO-16" style="edgeStyle=orthogonalEdgeStyle;rounded=0;orthogonalLoop=1;jettySize=auto;html=1;entryX=0.5;entryY=0;entryDx=0;entryDy=0;" parent="1" source="ZkJlQXpscqVsZKB4UgPO-18" target="ZkJlQXpscqVsZKB4UgPO-32" edge="1">
          <mxGeometry relative="1" as="geometry">
            <mxPoint x="425.5" y="570" as="targetPoint" />
          </mxGeometry>
        </mxCell>
        <mxCell id="ZkJlQXpscqVsZKB4UgPO-17" style="edgeStyle=orthogonalEdgeStyle;rounded=0;orthogonalLoop=1;jettySize=auto;html=1;exitX=1;exitY=0.5;exitDx=0;exitDy=0;" parent="1" source="ZkJlQXpscqVsZKB4UgPO-18" target="ZkJlQXpscqVsZKB4UgPO-21" edge="1">
          <mxGeometry relative="1" as="geometry">
            <mxPoint x="670" y="415.3529411764707" as="targetPoint" />
          </mxGeometry>
        </mxCell>
        <mxCell id="ZkJlQXpscqVsZKB4UgPO-18" value="tong(a,b,&amp;amp;t)" style="shape=process;whiteSpace=wrap;html=1;backgroundOutline=1;fillColor=#FFFF66;" parent="1" vertex="1">
          <mxGeometry x="310.5" y="440" width="230" height="60" as="geometry" />
        </mxCell>
        <mxCell id="ZkJlQXpscqVsZKB4UgPO-21" value="" style="whiteSpace=wrap;html=1;aspect=fixed;fillColor=#FFFF33;" parent="1" vertex="1">
          <mxGeometry x="655" y="340" width="260" height="260" as="geometry" />
        </mxCell>
        <mxCell id="ZkJlQXpscqVsZKB4UgPO-22" style="edgeStyle=orthogonalEdgeStyle;rounded=0;orthogonalLoop=1;jettySize=auto;html=1;entryX=0.5;entryY=0;entryDx=0;entryDy=0;" parent="1" source="ZkJlQXpscqVsZKB4UgPO-23" target="ZkJlQXpscqVsZKB4UgPO-26" edge="1">
          <mxGeometry relative="1" as="geometry" />
        </mxCell>
        <mxCell id="ZkJlQXpscqVsZKB4UgPO-23" value="tong(a,b,*tmp)" style="ellipse;whiteSpace=wrap;html=1;" parent="1" vertex="1">
          <mxGeometry x="670" y="350" width="230" height="60" as="geometry" />
        </mxCell>
        <mxCell id="ZkJlQXpscqVsZKB4UgPO-24" value="return" style="ellipse;whiteSpace=wrap;html=1;" parent="1" vertex="1">
          <mxGeometry x="692.5" y="530" width="185" height="60" as="geometry" />
        </mxCell>
        <mxCell id="ZkJlQXpscqVsZKB4UgPO-25" style="edgeStyle=orthogonalEdgeStyle;rounded=0;orthogonalLoop=1;jettySize=auto;html=1;" parent="1" source="ZkJlQXpscqVsZKB4UgPO-26" target="ZkJlQXpscqVsZKB4UgPO-24" edge="1">
          <mxGeometry relative="1" as="geometry" />
        </mxCell>
        <mxCell id="ZkJlQXpscqVsZKB4UgPO-26" value="*tmp=a+b" style="rounded=0;whiteSpace=wrap;html=1;" parent="1" vertex="1">
          <mxGeometry x="680" y="437.5" width="210" height="65" as="geometry" />
        </mxCell>
        <mxCell id="ZkJlQXpscqVsZKB4UgPO-30" style="edgeStyle=orthogonalEdgeStyle;rounded=0;orthogonalLoop=1;jettySize=auto;html=1;exitX=0.5;exitY=1;exitDx=0;exitDy=0;entryX=0.5;entryY=0;entryDx=0;entryDy=0;" parent="1" source="ZkJlQXpscqVsZKB4UgPO-28" target="ZkJlQXpscqVsZKB4UgPO-18" edge="1">
          <mxGeometry relative="1" as="geometry">
            <mxPoint x="425.5" y="420" as="targetPoint" />
            <mxPoint x="425.5" y="370" as="sourcePoint" />
          </mxGeometry>
        </mxCell>
        <mxCell id="ZkJlQXpscqVsZKB4UgPO-29" style="edgeStyle=orthogonalEdgeStyle;rounded=0;orthogonalLoop=1;jettySize=auto;html=1;exitX=1;exitY=0.5;exitDx=0;exitDy=0;entryX=0.25;entryY=1;entryDx=0;entryDy=0;" parent="1" source="ZkJlQXpscqVsZKB4UgPO-28" target="ZkJlQXpscqVsZKB4UgPO-8" edge="1">
          <mxGeometry relative="1" as="geometry" />
        </mxCell>
        <mxCell id="ZkJlQXpscqVsZKB4UgPO-28" value="nhap(&amp;amp;b)" style="shape=process;whiteSpace=wrap;html=1;backgroundOutline=1;fillColor=#FFFF66;" parent="1" vertex="1">
          <mxGeometry x="320.5" y="280" width="210" height="70" as="geometry" />
        </mxCell>
        <mxCell id="ZkJlQXpscqVsZKB4UgPO-37" style="edgeStyle=orthogonalEdgeStyle;rounded=0;orthogonalLoop=1;jettySize=auto;html=1;exitX=0;exitY=0.5;exitDx=0;exitDy=0;" parent="1" source="ZkJlQXpscqVsZKB4UgPO-32" target="ZkJlQXpscqVsZKB4UgPO-33" edge="1">
          <mxGeometry relative="1" as="geometry" />
        </mxCell>
        <mxCell id="tlCsrI3CP0LPWgQ48DO2-2" style="edgeStyle=orthogonalEdgeStyle;rounded=0;orthogonalLoop=1;jettySize=auto;html=1;entryX=0.5;entryY=0;entryDx=0;entryDy=0;" edge="1" parent="1" source="ZkJlQXpscqVsZKB4UgPO-32" target="ZkJlQXpscqVsZKB4UgPO-47">
          <mxGeometry relative="1" as="geometry" />
        </mxCell>
        <mxCell id="ZkJlQXpscqVsZKB4UgPO-32" value="hieu(a,b,&amp;amp;h)" style="shape=process;whiteSpace=wrap;html=1;backgroundOutline=1;fillColor=#FFFF66;" parent="1" vertex="1">
          <mxGeometry x="308" y="590" width="230" height="60" as="geometry" />
        </mxCell>
        <mxCell id="ZkJlQXpscqVsZKB4UgPO-33" value="" style="whiteSpace=wrap;html=1;aspect=fixed;fillColor=#FFFF33;" parent="1" vertex="1">
          <mxGeometry x="-60" y="500" width="260" height="260" as="geometry" />
        </mxCell>
        <mxCell id="ZkJlQXpscqVsZKB4UgPO-34" value="tong(a,b,*tmp)" style="ellipse;whiteSpace=wrap;html=1;" parent="1" vertex="1">
          <mxGeometry x="-45" y="510" width="230" height="60" as="geometry" />
        </mxCell>
        <mxCell id="ZkJlQXpscqVsZKB4UgPO-35" value="return" style="ellipse;whiteSpace=wrap;html=1;" parent="1" vertex="1">
          <mxGeometry x="-22.5" y="690" width="185" height="60" as="geometry" />
        </mxCell>
        <mxCell id="ZkJlQXpscqVsZKB4UgPO-36" value="*tmp=a-b" style="rounded=0;whiteSpace=wrap;html=1;" parent="1" vertex="1">
          <mxGeometry x="-35" y="597.5" width="210" height="65" as="geometry" />
        </mxCell>
        <mxCell id="ZkJlQXpscqVsZKB4UgPO-38" value="" style="whiteSpace=wrap;html=1;aspect=fixed;fillColor=#FFFF33;" parent="1" vertex="1">
          <mxGeometry x="650" y="680" width="260" height="260" as="geometry" />
        </mxCell>
        <mxCell id="ZkJlQXpscqVsZKB4UgPO-39" value="tong(a,b,*tmp)" style="ellipse;whiteSpace=wrap;html=1;" parent="1" vertex="1">
          <mxGeometry x="665" y="690" width="230" height="60" as="geometry" />
        </mxCell>
        <mxCell id="ZkJlQXpscqVsZKB4UgPO-40" value="return" style="ellipse;whiteSpace=wrap;html=1;" parent="1" vertex="1">
          <mxGeometry x="687.5" y="870" width="185" height="60" as="geometry" />
        </mxCell>
        <mxCell id="ZkJlQXpscqVsZKB4UgPO-41" value="*tmp=a*b" style="rounded=0;whiteSpace=wrap;html=1;" parent="1" vertex="1">
          <mxGeometry x="675" y="777.5" width="210" height="65" as="geometry" />
        </mxCell>
        <mxCell id="ZkJlQXpscqVsZKB4UgPO-42" value="" style="whiteSpace=wrap;html=1;aspect=fixed;fillColor=#FFFF33;" parent="1" vertex="1">
          <mxGeometry x="-60" y="830" width="260" height="260" as="geometry" />
        </mxCell>
        <mxCell id="ZkJlQXpscqVsZKB4UgPO-43" value="tong(a,b,*tmp)" style="ellipse;whiteSpace=wrap;html=1;" parent="1" vertex="1">
          <mxGeometry x="-45" y="840" width="230" height="60" as="geometry" />
        </mxCell>
        <mxCell id="ZkJlQXpscqVsZKB4UgPO-44" value="return" style="ellipse;whiteSpace=wrap;html=1;" parent="1" vertex="1">
          <mxGeometry x="-22.5" y="1020" width="185" height="60" as="geometry" />
        </mxCell>
        <mxCell id="ZkJlQXpscqVsZKB4UgPO-45" value="*tmp=a/b" style="rounded=0;whiteSpace=wrap;html=1;" parent="1" vertex="1">
          <mxGeometry x="-35" y="927.5" width="210" height="65" as="geometry" />
        </mxCell>
        <mxCell id="ZkJlQXpscqVsZKB4UgPO-50" style="edgeStyle=orthogonalEdgeStyle;rounded=0;orthogonalLoop=1;jettySize=auto;html=1;exitX=1;exitY=0.5;exitDx=0;exitDy=0;entryX=0;entryY=0.5;entryDx=0;entryDy=0;" parent="1" source="ZkJlQXpscqVsZKB4UgPO-47" target="ZkJlQXpscqVsZKB4UgPO-38" edge="1">
          <mxGeometry relative="1" as="geometry" />
        </mxCell>
        <mxCell id="tlCsrI3CP0LPWgQ48DO2-3" style="edgeStyle=orthogonalEdgeStyle;rounded=0;orthogonalLoop=1;jettySize=auto;html=1;" edge="1" parent="1" source="ZkJlQXpscqVsZKB4UgPO-47" target="ZkJlQXpscqVsZKB4UgPO-52">
          <mxGeometry relative="1" as="geometry" />
        </mxCell>
        <mxCell id="ZkJlQXpscqVsZKB4UgPO-47" value="tich(a,b,&amp;amp;ti)" style="shape=process;whiteSpace=wrap;html=1;backgroundOutline=1;fillColor=#FFFF66;" parent="1" vertex="1">
          <mxGeometry x="307" y="760" width="230" height="60" as="geometry" />
        </mxCell>
        <mxCell id="ZkJlQXpscqVsZKB4UgPO-56" style="edgeStyle=orthogonalEdgeStyle;rounded=0;orthogonalLoop=1;jettySize=auto;html=1;exitX=0.5;exitY=1;exitDx=0;exitDy=0;entryX=0.5;entryY=0;entryDx=0;entryDy=0;" parent="1" target="ZkJlQXpscqVsZKB4UgPO-57" edge="1">
          <mxGeometry relative="1" as="geometry">
            <mxPoint x="423" y="1080" as="targetPoint" />
            <mxPoint x="423" y="992.5" as="sourcePoint" />
          </mxGeometry>
        </mxCell>
        <mxCell id="ZkJlQXpscqVsZKB4UgPO-55" style="edgeStyle=orthogonalEdgeStyle;rounded=0;orthogonalLoop=1;jettySize=auto;html=1;exitX=0;exitY=0.5;exitDx=0;exitDy=0;entryX=1;entryY=0.5;entryDx=0;entryDy=0;" parent="1" source="ZkJlQXpscqVsZKB4UgPO-52" target="ZkJlQXpscqVsZKB4UgPO-42" edge="1">
          <mxGeometry relative="1" as="geometry" />
        </mxCell>
        <mxCell id="ZkJlQXpscqVsZKB4UgPO-52" value="thuong(a,b,&amp;amp;th)" style="shape=process;whiteSpace=wrap;html=1;backgroundOutline=1;fillColor=#FFFF66;" parent="1" vertex="1">
          <mxGeometry x="305.5" y="922.5" width="230" height="60" as="geometry" />
        </mxCell>
        <mxCell id="ZkJlQXpscqVsZKB4UgPO-58" style="edgeStyle=orthogonalEdgeStyle;rounded=0;orthogonalLoop=1;jettySize=auto;html=1;entryX=0.5;entryY=0;entryDx=0;entryDy=0;" parent="1" source="ZkJlQXpscqVsZKB4UgPO-57" target="ZkJlQXpscqVsZKB4UgPO-3" edge="1">
          <mxGeometry relative="1" as="geometry" />
        </mxCell>
        <mxCell id="ZkJlQXpscqVsZKB4UgPO-57" value="print t, h, ti, th" style="shape=parallelogram;perimeter=parallelogramPerimeter;whiteSpace=wrap;html=1;fixedSize=1;" parent="1" vertex="1">
          <mxGeometry x="300.5" y="1080" width="245" height="90" as="geometry" />
        </mxCell>
        <mxCell id="fiO6M8W5KO8K9Xx7ewBO-1" style="edgeStyle=orthogonalEdgeStyle;rounded=0;orthogonalLoop=1;jettySize=auto;html=1;exitX=1;exitY=0;exitDx=0;exitDy=0;" parent="1" source="fiO6M8W5KO8K9Xx7ewBO-4" target="fiO6M8W5KO8K9Xx7ewBO-5" edge="1">
          <mxGeometry relative="1" as="geometry">
            <mxPoint x="80" y="90" as="targetPoint" />
          </mxGeometry>
        </mxCell>
        <mxCell id="fiO6M8W5KO8K9Xx7ewBO-2" style="edgeStyle=orthogonalEdgeStyle;rounded=0;orthogonalLoop=1;jettySize=auto;html=1;" parent="1" source="fiO6M8W5KO8K9Xx7ewBO-4" target="fiO6M8W5KO8K9Xx7ewBO-6" edge="1">
          <mxGeometry relative="1" as="geometry">
            <mxPoint x="120" y="220" as="targetPoint" />
          </mxGeometry>
        </mxCell>
        <mxCell id="fiO6M8W5KO8K9Xx7ewBO-3" style="edgeStyle=orthogonalEdgeStyle;rounded=0;orthogonalLoop=1;jettySize=auto;html=1;exitX=1;exitY=1;exitDx=0;exitDy=0;" parent="1" source="fiO6M8W5KO8K9Xx7ewBO-4" target="fiO6M8W5KO8K9Xx7ewBO-7" edge="1">
          <mxGeometry relative="1" as="geometry">
            <mxPoint x="130" y="390" as="targetPoint" />
          </mxGeometry>
        </mxCell>
        <mxCell id="fiO6M8W5KO8K9Xx7ewBO-4" value="Nhập 2 số a và b. &lt;br&gt;Tính tổng, hiệu, tích và thương của hai số đó&amp;nbsp;" style="whiteSpace=wrap;html=1;aspect=fixed;" parent="1" vertex="1">
          <mxGeometry x="-140" y="140" width="160" height="160" as="geometry" />
        </mxCell>
        <mxCell id="fiO6M8W5KO8K9Xx7ewBO-5" value="input: a,b" style="rounded=0;whiteSpace=wrap;html=1;" parent="1" vertex="1">
          <mxGeometry x="70" y="40" width="120" height="60" as="geometry" />
        </mxCell>
        <mxCell id="fiO6M8W5KO8K9Xx7ewBO-6" value="process:&lt;br&gt;tong=a+b&lt;br&gt;hieu=a-b&lt;br&gt;tich=a*b&lt;br&gt;thuong=a/b" style="rounded=0;whiteSpace=wrap;html=1;" parent="1" vertex="1">
          <mxGeometry x="80" y="170" width="120" height="100" as="geometry" />
        </mxCell>
        <mxCell id="fiO6M8W5KO8K9Xx7ewBO-7" value="output: tong, hieu, tich, thuong" style="rounded=0;whiteSpace=wrap;html=1;" parent="1" vertex="1">
          <mxGeometry x="70" y="350" width="120" height="60" as="geometry" />
        </mxCell>
      </root>
    </mxGraphModel>
  </diagram>
</mxfile>
